<svg viewBox="0 0 71 13" fill="none" xmlns="http://www.w3.org/2000/svg"><path d="M10.872 12.226V13H0v-.774h4.374V2.362H.558V.418h9.756v1.944H6.498v9.864h4.374zm14.109 0V13h-4.014l-1.26-2.862h-6.3L12.147 13H8.133v-.774h2.088L15.423.418h2.268l5.202 11.808h2.088zm-6.138-4.05l-2.286-5.184-2.286 5.184h4.572zm22.09 4.05V13h-3.87V3.172l-4.393 8.73h-1.188l-4.374-8.73V13h-3.87v-.774h1.746V.418h3.312l3.798 7.902L35.892.418h3.294v11.808h1.746zm17.7 0V13h-3.87V3.172l-4.392 8.73h-1.188l-4.373-8.73V13h-3.87v-.774h1.745V.418h3.313l3.797 7.902L53.593.418h3.294v11.808h1.746zm4.544 0V8.032L58.497.418h2.322l3.438 5.724L67.695.418h2.322l-4.68 7.614v4.194h4.536V13H58.64v-.774h4.536z" fill="url(#paint0_linear)"/><defs><linearGradient id="paint0_linear" x1="35" y1="-4" x2="35" y2="18" gradientUnits="userSpaceOnUse"><stop offset=".49" stop-color="#EEB336"/><stop offset=".771"/></linearGradient></defs></svg>